<?xml version="1.0" encoding="utf-8"?>
<svg width="756.42px" height="333.59998px" viewBox="0 0 756.42 333.59998" version="1.1" xmlns:xlink="http://www.w3.org/1999/xlink" xmlns="http://www.w3.org/2000/svg">
  <defs>
    <path d="M0 0L756.41 0L756.41 333.59L0 333.59L0 0Z" id="path_1" />
    <clipPath id="mask_1">
      <use xlink:href="#path_1" />
    </clipPath>
  </defs>
  <g id="RI_WithoutStrap_RGB">
    <path d="M0 0L756.41 0L756.41 333.59L0 333.59L0 0Z" id="Fondo" fill="#FFFFFF" fill-opacity="0" fill-rule="evenodd" stroke="none" />
    <g id="Layer_1-2">
      <g id="Group">
        <path d="M104.49 68.86L104.49 39.42C104.49 39.1 104.02 4.66 62.01 4.66L0.04 4.63L0 154.68L29.99 154.68L29.99 105.49L43.7 104.33L81.64 154.69L114.62 154.71L74.54 101.57C104.07 95.67 104.49 69.18 104.49 68.86M30.02 28.75L61.99 28.75C76.03 28.75 76.57 38.16 76.64 39.25L76.64 68.85C76.58 69.81 76.04 78.54 62.3 78.64L30.02 80.76L30.02 28.75L30.02 28.75ZM127.8 52.64C114.94 66.71 114.78 84.23 114.88 87.7L114.85 110.19C114.78 117.03 114.57 135.21 130.28 147.55C139.53 154.77 152.4 158.41 169.03 158.41C182.98 158.41 199.6 155.87 219.07 150.83L212.27 124.81C166.61 136.73 151.29 129.87 146.83 126.39C142.72 123.2 141.86 118.5 141.7 113.42C150.09 113.51 166.2 113.34 194.75 112.91C206.21 112.73 212.91 107.05 216.5 102.53C225.75 90.87 223.59 74.26 222.69 69.35C221.25 56.6 208.12 34.52 167.25 36.24C150.45 36.88 137.17 42.41 127.79 52.64M195.94 72.33C195.94 72.33 198.31 79.15 195.53 85.81C195.47 85.94 194.95 86.04 193.97 86.07C170.24 86.45 149.44 86.64 141.69 86.58C141.69 85.08 142.16 76.73 147.6 70.77C151.93 66.05 158.9 63.42 168.32 63.07C187.89 62.3 194.78 68.32 195.94 72.34M696.75 29.25C704.84 29.25 711.39 22.73 711.39 14.64C711.39 6.55 704.84 0 696.75 0C688.66 0 682.13 6.54 682.13 14.64C682.11 22.71 688.68 29.25 696.75 29.25M234.56 72.13L234.53 154.74L264.51 154.76L264.54 72.13C264.54 71.11 264.91 62.09 278.38 62.09L297.75 62.09C311.01 62.09 311.77 70.79 311.82 71.73L311.79 154.76L341.52 154.76L341.52 72.13C341.52 71.8 341.03 36.11 297.75 36.1L278.38 36.1C235.03 36.08 234.56 71.76 234.56 72.13M727.69 4.79L727.66 154.85L756.35 154.85L756.42 4.78999L727.7 4.78999L727.69 4.79ZM561.7 4.74L561.7 154.8L590.39 154.8L590.41 93.93L590.44 4.76001L561.7 4.74001L561.7 4.74ZM669.06 154.82L623.21 93.95L666.8 36.17L633.99 36.17L590.4 93.92L636.25 154.81L669.06 154.81L669.06 154.82ZM711.56 154.82L711.59 36.18L681.88 36.18L681.88 154.82L711.56 154.82L711.56 154.82ZM546.52 105.21L546.52 89.5C546.52 60.61 523.03 37.1 494.14 37.1L487.24 37.1C458.29 37.1 434.78 60.58 434.78 89.48L434.78 105.18C434.78 134.07 458.29 157.59 487.17 157.59L494.1 157.59C523.01 157.62 546.52 134.09 546.52 105.21M487.17 130.6C473.17 130.6 461.77 119.19 461.78 105.18L461.78 89.48C461.78 75.46 473.18 64.07 487.23 64.07L494.14 64.07C508.18 64.07 519.58 75.46 519.58 89.5L519.58 105.21C519.58 119.21 508.13 130.6 494.14 130.6L487.17 130.6L487.17 130.6ZM348.87 60.31L368.19 60.31L368.19 118.31C368.19 118.69 368.62 154.23 411.57 154.23L426.64 154.23L426.64 130.12L412.1 130.12C398.55 130.12 397.82 119.52 397.78 118.31L397.82 60.31L426.64 60.31L426.64 35.74L397.82 35.74L397.82 4.65L368.2 4.65L368.2 35.74L348.9 35.74L348.88 60.3L348.87 60.31Z" id="Forma" fill="#ED1C24" fill-rule="evenodd" stroke="none" />
        <path d="M121.64 250.74L121.6 333.49L151.4 333.49L151.25 251.19C151.25 250.8 150.74 215.25 107.59 215.25L88.28 215.25C45.12 215.25 44.62 250.78 44.62 251.18L44.62 333.5C44.62 333.5 74.48 333.5 74.48 333.5L74.48 251.18C74.48 250.13 74.87 241.09 88.28 241.09L107.59 241.09C120.84 241.11 121.6 249.79 121.64 250.75M197.09 333.53L197.12 215.28L167.48 215.28L167.48 333.53L197.1 333.53L197.09 333.53ZM257.99 215.07L257.99 183.97L228.37 183.93L228.37 215.07L209.06 215.07L209.06 239.61L228.37 239.61C228.37 239.61 228.35 297.64 228.35 297.64C228.35 298 228.84 333.53 271.73 333.57L286.83 333.57L286.83 309.41L272.23 309.41C258.73 309.41 258 298.82 257.98 297.64L257.98 239.62L286.83 239.62L286.83 215.1L257.98 215.07L257.99 215.07ZM302.14 215.27L302.14 333.57L331.93 333.57L331.74 215.31L302.13 215.27L302.14 215.27ZM449.24 333.59L449.24 256.9C449.27 247.46 446.19 216.59 406.65 216.55L391.19 216.55C348.82 216.55 348.29 251.45 348.29 251.8L375.06 251.8C375.06 251.35 375.63 240.59 391.19 240.59L406.65 240.59C421.16 240.59 421.72 250.55 421.72 251.68L421.7 260.11L387.31 260.08C345.47 260.08 344.98 294.42 344.98 294.75L344.98 298.74C344.98 299.05 345.44 332.56 387.3 332.56C390.83 332.56 409.77 328.44 421.69 325.74L421.69 333.6L449.24 333.6L449.24 333.59ZM372.75 298.73L372.77 294.6C372.78 293.49 373.34 284.11 387.31 284.11L421.7 284.11L421.7 301.58C415.25 303 399.37 306.11 387.05 308.51C373.34 308.39 372.78 299.71 372.76 298.73M182.3 206.21C190.4 206.21 196.94 199.69 196.94 191.59C196.94 183.49 190.39 176.92 182.3 176.92C174.21 176.92 167.67 183.52 167.67 191.59C167.67 199.66 174.24 206.21 182.3 206.21M302.42 191.59C302.42 199.68 308.95 206.21 317.02 206.21C325.09 206.21 331.67 199.69 331.67 191.59C331.67 183.49 325.13 176.92 317.03 176.92C308.93 176.92 302.42 183.52 302.42 191.59M494.55 183.99L465.86 183.99L465.86 333.58L494.55 333.58L494.55 183.99L494.55 183.99ZM0 333.59L28.72 333.59L28.72 184L0 184L0 333.59L0 333.59Z" id="Forma" fill="#007DC5" fill-rule="evenodd" stroke="none" />
      </g>
    </g>
  </g>
</svg>